<?xml version="1.0" encoding="UTF-8" standalone="no"?>
<!DOCTYPE svg PUBLIC "-//W3C//DTD SVG 1.1//EN" "http://www.w3.org/Graphics/SVG/1.1/DTD/svg11.dtd">
<svg fill="currentColor" width="12" height="12" viewBox="0 0 12 12" version="1.1" xmlns="http://www.w3.org/2000/svg" xmlns:xlink="http://www.w3.org/1999/xlink" xml:space="preserve" xmlns:serif="http://www.serif.com/" style="fill-rule:evenodd;clip-rule:evenodd;stroke-linejoin:round;stroke-miterlimit:2;">
    <g transform="matrix(1.5,0,0,1.5,-3,-3)">
        <path d="M6.77,2.075C6.262,1.975 5.738,1.975 5.23,2.075L5.105,3.144C4.685,3.276 4.299,3.499 3.974,3.797L2.986,3.37C2.645,3.761 2.384,4.214 2.216,4.704L3.08,5.347C2.983,5.777 2.983,6.223 3.08,6.653L2.216,7.296C2.384,7.786 2.645,8.239 2.986,8.63L3.974,8.203C4.299,8.501 4.685,8.724 5.105,8.856L5.23,9.925C5.738,10.025 6.262,10.025 6.77,9.925L6.895,8.856C7.315,8.724 7.701,8.501 8.026,8.203L9.014,8.63C9.355,8.239 9.616,7.786 9.784,7.296L8.92,6.653C9.017,6.223 9.017,5.777 8.92,5.347L9.784,4.704C9.616,4.214 9.355,3.761 9.014,3.37L8.026,3.797C7.701,3.499 7.315,3.276 6.895,3.144L6.77,2.075ZM6,5.02C6.541,5.02 6.98,5.459 6.98,6C6.98,6.541 6.541,6.98 6,6.98C5.459,6.98 5.02,6.541 5.02,6C5.02,5.459 5.459,5.02 6,5.02Z"/>
    </g>
</svg>
