<?xml version="1.0" encoding="UTF-8" standalone="no"?>
<!DOCTYPE svg PUBLIC "-//W3C//DTD SVG 1.1//EN" "http://www.w3.org/Graphics/SVG/1.1/DTD/svg11.dtd">
<svg fill="currentColor" width="12" height="12" viewBox="0 0 12 12" version="1.1" xmlns="http://www.w3.org/2000/svg" xmlns:xlink="http://www.w3.org/1999/xlink" xml:space="preserve" xmlns:serif="http://www.serif.com/" style="fill-rule:evenodd;clip-rule:evenodd;stroke-linejoin:round;stroke-miterlimit:2;">
    <path d="M6,0C9.311,0 12,2.689 12,6C12,9.311 9.311,12 6,12C2.689,12 0,9.311 0,6C0,2.689 2.689,0 6,0ZM6,1C8.76,1 11,3.24 11,6C11,8.76 8.76,11 6,11C3.24,11 1,8.76 1,6C1,3.24 3.24,1 6,1Z"/>
    <g transform="matrix(1,0,0,1,0,1)">
        <circle cx="6" cy="2" r="1"/>
    </g>
    <g transform="matrix(2,0,0,0.714286,-5,2.14286)">
        <rect x="5" y="4" width="1" height="7"/>
    </g>
</svg>
