<?xml version="1.0" encoding="UTF-8" standalone="no"?>
<!DOCTYPE svg PUBLIC "-//W3C//DTD SVG 1.1//EN" "http://www.w3.org/Graphics/SVG/1.1/DTD/svg11.dtd">
<svg fill="currentColor" width="12" height="12" viewBox="0 0 12 12" version="1.1" xmlns="http://www.w3.org/2000/svg" xmlns:xlink="http://www.w3.org/1999/xlink" xml:space="preserve" xmlns:serif="http://www.serif.com/" style="fill-rule:evenodd;clip-rule:evenodd;stroke-linejoin:round;stroke-miterlimit:2;">
    <path d="M2.984,9.214C4.822,10.356 7.77,10.103 9.196,8.393C10.836,6.425 10.853,2.978 9.708,0.796C9.302,1.175 9.156,1.494 8.654,1.77C7.558,2.373 6.181,2.33 5.014,2.659C3.311,3.139 1.778,4.436 1.515,6.264C1.434,6.826 1.711,7.695 1.91,8.2C4.251,6.38 7.429,5.687 9.009,2.989C8.39,4.39 7.203,5.46 5.972,6.318C4.75,7.169 3.263,7.643 2.179,8.701C1.826,9.046 1.524,9.439 1.201,9.813C1.098,9.933 0.753,10.318 0.775,10.515C0.793,10.681 1.208,11.738 1.613,11.22C2.112,10.582 2.459,9.831 2.984,9.214Z"/>
</svg>
