<?xml version="1.0" encoding="UTF-8" standalone="no"?>
<!DOCTYPE svg PUBLIC "-//W3C//DTD SVG 1.1//EN" "http://www.w3.org/Graphics/SVG/1.1/DTD/svg11.dtd">
<svg fill="currentColor" width="100%" height="100%" viewBox="0 0 12 12" version="1.1" xmlns="http://www.w3.org/2000/svg" xmlns:xlink="http://www.w3.org/1999/xlink" xml:space="preserve" xmlns:serif="http://www.serif.com/" style="fill-rule:evenodd;clip-rule:evenodd;stroke-linecap:round;stroke-linejoin:bevel;stroke-miterlimit:1.5;">
    <rect id="Artboard1" x="0" y="0" width="12" height="12" style="fill:none;"/>
    <g id="Artboard11" serif:id="Artboard1">
        <g id="CLOCK">
            <g transform="matrix(1.25,0,0,1.25,-1.75,-1.75)">
                <path d="M9,7C10.104,7 11,7.896 11,9C11,10.104 10.104,11 9,11C7.896,11 7,10.104 7,9C7,7.896 7.896,7 9,7ZM9,7.4C9.883,7.4 10.6,8.117 10.6,9C10.6,9.883 9.883,10.6 9,10.6C8.117,10.6 7.4,9.883 7.4,9C7.4,8.117 8.117,7.4 9,7.4Z"/>
            </g>
            <path d="M9.5,9.5L11,9.5" style="fill:none;stroke:currentColor;stroke-width:0.5px;"/>
            <g transform="matrix(6.12323e-17,1,-1,6.12323e-17,19,-1.5)">
                <path d="M9.5,9.5L11,9.5" style="fill:none;stroke:currentColor;stroke-width:0.5px;"/>
            </g>
        </g>
        <g id="dates">
            <g transform="matrix(1,0,0,1,-0.234544,-1.07277)">
                <rect x="1.714" y="4.488" width="1.512" height="1.512"/>
            </g>
            <g transform="matrix(1,0,0,1,-0.234544,2.93076)">
                <rect x="1.714" y="4.488" width="1.512" height="1.512"/>
            </g>
            <g transform="matrix(1,0,0,1,1.76546,-1.07277)">
                <rect x="1.714" y="4.488" width="1.512" height="1.512"/>
            </g>
            <g transform="matrix(1,0,0,1,1.76546,2.93076)">
                <rect x="1.714" y="4.488" width="1.512" height="1.512"/>
            </g>
            <g transform="matrix(1,0,0,1,-0.234544,0.936971)">
                <rect x="1.714" y="4.488" width="1.512" height="1.512"/>
            </g>
            <g transform="matrix(1,0,0,1,3.76546,-1.07277)">
                <rect x="1.714" y="4.488" width="1.512" height="1.512"/>
            </g>
            <g transform="matrix(1,0,0,1,1.76546,0.936971)">
                <rect x="1.714" y="4.488" width="1.512" height="1.512"/>
            </g>
            <g transform="matrix(1,0,0,1,5.76546,-1.07277)">
                <rect x="1.714" y="4.488" width="1.512" height="1.512"/>
            </g>
            <g transform="matrix(1,0,0,1,3.76546,0.936971)">
                <rect x="1.714" y="4.488" width="1.512" height="1.512"/>
            </g>
        </g>
        <g id="frame">
            <path d="M9.5,6L9.5,3L1,3L1,9.5L6,9.5" style="fill:none;stroke:currentColor;stroke-width:0.5px;stroke-linejoin:round;stroke-miterlimit:1.58537;"/>
            <path d="M1,3L1,2L9.5,2L9.5,3" style="stroke:currentColor;stroke-width:0.5px;stroke-linejoin:round;stroke-miterlimit:0;"/>
        </g>
        <g id="hangers">
            <g transform="matrix(1,-4.85723e-17,-3.81639e-17,1,0.0249419,-3.9968e-15)">
                <path d="M1.975,2L2,1" style="fill:none;stroke:currentColor;stroke-width:0.5px;stroke-linejoin:round;stroke-miterlimit:0;"/>
            </g>
            <g transform="matrix(1,-5.20417e-17,-3.81639e-17,1,6.54749,-4.22674e-15)">
                <path d="M1.975,2L2,1" style="fill:none;stroke:currentColor;stroke-width:0.5px;stroke-linejoin:round;stroke-miterlimit:0;"/>
            </g>
        </g>
    </g>
</svg>
