<?xml version="1.0" encoding="UTF-8" standalone="no"?>
<!DOCTYPE svg PUBLIC "-//W3C//DTD SVG 1.1//EN" "http://www.w3.org/Graphics/SVG/1.1/DTD/svg11.dtd">
<svg width="12" height="12" viewBox="0 0 12 12" version="1.1" xmlns="http://www.w3.org/2000/svg" xmlns:xlink="http://www.w3.org/1999/xlink" xml:space="preserve" xmlns:serif="http://www.serif.com/" style="fill-rule:evenodd;clip-rule:evenodd;stroke-linejoin:round;stroke-miterlimit:2;">
    <g transform="matrix(1,0,0,1,-0.730677,0.0565319)">
        <circle cx="6.731" cy="5.943" r="2.507"/>
    </g>
    <g transform="matrix(1,0,0,1,0.478895,-1.01772)">
        <path d="M5.521,1.018L6,3.493L5.042,3.493L5.521,1.018Z"/>
    </g>
    <g transform="matrix(0.707107,0.707107,-0.707107,0.707107,7.05827,-2.86629)">
        <path d="M5.521,1.018L6,3.493L5.042,3.493L5.521,1.018Z"/>
    </g>
    <g transform="matrix(0,1,-1,0,13.0177,0.478895)">
        <path d="M5.521,1.018L6,3.493L5.042,3.493L5.521,1.018Z"/>
    </g>
    <g transform="matrix(-0.707107,0.707107,-0.707107,-0.707107,14.8663,7.05827)">
        <path d="M5.521,1.018L6,3.493L5.042,3.493L5.521,1.018Z"/>
    </g>
    <g transform="matrix(-1,-2.22045e-16,2.22045e-16,-1,11.5211,13.0177)">
        <path d="M5.521,1.018L6,3.493L5.042,3.493L5.521,1.018Z"/>
    </g>
    <g transform="matrix(-0.707107,-0.707107,0.707107,-0.707107,4.94173,14.8663)">
        <path d="M5.521,1.018L6,3.493L5.042,3.493L5.521,1.018Z"/>
    </g>
    <g transform="matrix(4.996e-16,-1,1,4.996e-16,-1.01772,11.5211)">
        <path d="M5.521,1.018L6,3.493L5.042,3.493L5.521,1.018Z"/>
    </g>
    <g transform="matrix(0.707107,-0.707107,0.707107,0.707107,-2.86629,4.94173)">
        <path d="M5.521,1.018L6,3.493L5.042,3.493L5.521,1.018Z"/>
    </g>
</svg>
